<svg id="Calque_5" data-name="Calque 5" xmlns="http://www.w3.org/2000/svg" viewBox="0 0 145.17 143.21"><defs><style>.cls-1,.cls-3{fill:#e62558;}.cls-2{fill:#531110;}.cls-3{stroke:#531110;stroke-miterlimit:10;stroke-width:5px;}.cls-4{fill:#e72859;}</style></defs><path class="cls-1" d="M727-111c-2.61,5.13-7.12,8.79-13.17,11.48s-11.65,5.1-14.9,10.24a29,29,0,0,0-4.19,15.73c.12,11.25,6.43,22.29,17.18,29.7,10.54,7.27,24.71,11.08,38.67,10.85,14.7-.24,28.8-5,39.31-13.11a45.83,45.83,0,0,0,17.91-31c1.7-12.12,1.49-25-3.84-36.61-4.9-10.63-14.31-19.38-26.7-25.07a76.35,76.35,0,0,0-33.35-6.84c-8.49.22-19.3,2.34-20.52,10.21a6.85,6.85,0,0,0,1.19,5.22,6.5,6.5,0,0,0,1.53,1.47,2.33,2.33,0,0,1,.43.46,14.78,14.78,0,0,1,1.26,1.82c.14.24.35.45.46.69a4.85,4.85,0,0,1,.31,1,17.71,17.71,0,0,1,.62,4,19.31,19.31,0,0,1-1.39,8C727.53-112.16,727.26-111.56,727-111Z" transform="translate(-666.04 173.67)"/><path class="cls-2" d="M724.8-112.23c-2.71,5.21-7.4,8.4-12.65,10.75-5.51,2.45-11.13,5-14.78,10-7.44,10.25-6.31,24.92-.23,35.47,6.4,11.09,17.7,18.26,29.67,22.07A74.7,74.7,0,0,0,767-32.59c12.15-3,24.11-9.28,32.25-18.95A48.19,48.19,0,0,0,808-67.17a68.25,68.25,0,0,0,3.08-18.22c.71-13.1-1.74-26.75-9.72-37.45-7.56-10.14-18.55-17-30.44-21.09a79.26,79.26,0,0,0-20.62-4,54,54,0,0,0-17.51,1.36c-4.74,1.3-9.45,3.86-11.33,8.65a9.88,9.88,0,0,0,.68,8.72c.84,1.31,2.14,2.08,3,3.35a6.17,6.17,0,0,1,1,1.81,15.81,15.81,0,0,1,.47,2.45,17.21,17.21,0,0,1-1.8,9.4c-1.43,2.87,2.88,5.41,4.32,2.52a23.34,23.34,0,0,0,2.55-9.68,21.07,21.07,0,0,0-.5-5.13,11.28,11.28,0,0,0-2-4.26,10.17,10.17,0,0,0-1.86-2.07,4.49,4.49,0,0,1-1.08-1.26,4.67,4.67,0,0,1-.38-3.18,6.8,6.8,0,0,1,2.72-4c3.56-2.57,8.36-3.33,12.71-3.65a70.17,70.17,0,0,1,18.74,1.28c11.79,2.39,23.39,7.49,32.12,15.91a44.62,44.62,0,0,1,9.29,12.72,50.37,50.37,0,0,1,4.59,18.37c.78,11.3-.49,23.63-6.21,33.61S784.31-44,773.66-39.91a69.16,69.16,0,0,1-36.76,3.36c-11.71-2.13-23.41-7.13-31.38-16.24-7.17-8.2-10.4-19.64-6.87-30.16a18.92,18.92,0,0,1,4.2-7.28,24,24,0,0,1,6.53-4.47c5.18-2.64,10.54-4.52,14.86-8.57a24.19,24.19,0,0,0,4.88-6.44C730.6-112.56,726.29-115.09,724.8-112.23Z" transform="translate(-666.04 173.67)"/><ellipse class="cls-3" cx="110.32" cy="68.11" rx="14.38" ry="12.85"/><ellipse class="cls-3" cx="100.42" cy="110.28" rx="14.38" ry="12.85"/><ellipse class="cls-3" cx="58.58" cy="97.42" rx="14.38" ry="12.85"/><path class="cls-4" d="M667.35-71.38a269.06,269.06,0,0,0,35.16-68.11c1.35-3.91,2.38-8.74-.84-11.75a3.13,3.13,0,0,0-2.43-.73,1.07,1.07,0,0,0-.89.55c-.09.21-.06.18-.28.23a3.89,3.89,0,0,0-1.32.57,2.47,2.47,0,0,0-.72,1c-.56,1-1.12,2-1.67,3-1.09,2-2.16,4.06-3.2,6.1s-2.06,4.11-3,6.18-2,4.16-2.88,6.25-1.84,4.19-2.71,6.31-1.73,4.24-2.55,6.37-1.61,4.27-2.37,6.43-1.5,4.31-2.21,6.48-1.38,4.34-2,6.53-1.27,4.37-1.86,6.57-1.16,4.41-1.69,6.62-1,4.44-1.52,6.66C668-74.5,667.65-72.94,667.35-71.38Z" transform="translate(-666.04 173.67)"/><path class="cls-2" d="M668.43-70.75a271.59,271.59,0,0,0,33.64-63.78c1.64-4.48,4.29-10.08,2.33-14.87-.88-2.15-2.93-4.34-5.49-3.78a2.71,2.71,0,0,0-1.17.56c-.06.05-.52.52-.47.57-.17-.16.93-.44.11-.25a4.19,4.19,0,0,0-2.67,2.51,279,279,0,0,0-16.46,35.48,263.55,263.55,0,0,0-12.1,42.6c-.31,1.57,2.1,2.25,2.41.67a262.63,262.63,0,0,1,24.13-69.66c1.42-2.78,2.93-5.51,4.42-8.26a1.7,1.7,0,0,1,1.11-1,2.2,2.2,0,0,0,.95-.45c.39-.39.05-.46.64-.34a2.6,2.6,0,0,1,1.72,1.22c2.73,3.88-.25,9.86-1.64,13.69a264.72,264.72,0,0,1-13.63,31.07,273.49,273.49,0,0,1-20,32.74C665.34-70.69,667.5-69.44,668.43-70.75Z" transform="translate(-666.04 173.67)"/><path class="cls-4" d="M709-172.43a12.16,12.16,0,0,1-4.29,7.16,36.86,36.86,0,0,0-3.77,3,10.82,10.82,0,0,0-2.12,3.65,7.15,7.15,0,0,0-.6,2.83,4.59,4.59,0,0,0,2.91,3.91,6.17,6.17,0,0,0,6-1.15,8.83,8.83,0,0,0,2.85-5.32,24.9,24.9,0,0,0,.07-6l-.53-7.85" transform="translate(-666.04 173.67)"/><path class="cls-2" d="M707.83-172.77a11.22,11.22,0,0,1-2.21,4.86,23.11,23.11,0,0,1-4.13,3.51,11,11,0,0,0-3.46,4.47,8.05,8.05,0,0,0-.85,5.28c.9,3.38,4.53,4.94,7.76,4.11,3.47-.9,5.68-4.09,6.28-7.49a27.88,27.88,0,0,0,.1-6.77l-.51-7.46c-.11-1.6-2.61-1.61-2.5,0,.24,3.55.62,7.13.67,10.69,0,3-.57,6.54-3.44,8.12-2.26,1.25-6,.57-6-2.54a8.83,8.83,0,0,1,1.67-4.55,14.28,14.28,0,0,1,3.66-3.22,13.81,13.81,0,0,0,5.41-8.34c.31-1.57-2.1-2.25-2.41-.67Z" transform="translate(-666.04 173.67)"/></svg>