<svg id="Calque_3" data-name="Calque 3" xmlns="http://www.w3.org/2000/svg" viewBox="0 0 205.73 145.91"><defs><style>.cls-1{fill:#e62257;stroke:#531110;stroke-miterlimit:10;stroke-width:4px;}</style></defs><path class="cls-1" d="M28.42,53.84h0a26.1,26.1,0,0,1,26.1,26.1v58.92a5.06,5.06,0,0,1-5.06,5.06H7.06A5.06,5.06,0,0,1,2,138.85V80.26A26.42,26.42,0,0,1,28.42,53.84Z"/><path class="cls-1" d="M284.33-76.13,237.48-97.22a7.25,7.25,0,0,1-3.7-9.43h0a7,7,0,0,1,9.29-3.57l46.85,21.09a7.25,7.25,0,0,1,3.7,9.43h0A7,7,0,0,1,284.33-76.13Z" transform="translate(-199.47 182.2)"/><circle class="cls-1" cx="28.26" cy="26.96" r="22.52"/><path class="cls-1" d="M358.26-130H397a6.24,6.24,0,0,1,6.24,6.24V-64a25.47,25.47,0,0,1-25.47,25.47h0A25.71,25.71,0,0,1,352-64.26V-123.8a6.24,6.24,0,0,1,6.24-6.24Z" transform="translate(555.76 13.61) rotate(180)"/><path class="cls-1" d="M320.72-74.44l45.71-20.47a7.28,7.28,0,0,0,3.56-9.47h0a6.86,6.86,0,0,0-9.12-3.78L315.16-87.69a7.28,7.28,0,0,0-3.56,9.47h0A6.86,6.86,0,0,0,320.72-74.44Z" transform="translate(-199.47 182.2)"/><ellipse class="cls-1" cx="178.15" cy="24.87" rx="21.94" ry="22.87"/><rect class="cls-1" x="74.74" y="43.82" width="61.24" height="38.44" rx="4.91"/></svg>