<svg id="Calque_2" data-name="Calque 2" xmlns="http://www.w3.org/2000/svg" viewBox="0 0 136.68 155.15"><defs><style>.cls-1,.cls-2,.cls-3{fill:#e62257;}.cls-1,.cls-2{stroke:#531110;stroke-miterlimit:10;}.cls-1{stroke-width:6px;}.cls-2{stroke-width:5px;}.cls-4{fill:#531110;}</style></defs><rect class="cls-1" x="3" y="31.07" width="130.68" height="121.08" rx="15.43"/><rect class="cls-2" x="24.25" y="2.93" width="13.46" height="46.05" rx="6.73"/><rect class="cls-2" x="62.93" y="2.5" width="13.46" height="46.05" rx="6.73"/><rect class="cls-2" x="101.61" y="2.5" width="13.46" height="46.05" rx="6.73"/><rect class="cls-2" x="69.66" y="66.88" width="18.15" height="19.54"/><rect class="cls-2" x="39.8" y="66.88" width="18.15" height="19.54"/><rect class="cls-2" x="69.66" y="98.04" width="18.15" height="19.54"/><rect class="cls-2" x="99.27" y="98.04" width="18.15" height="19.54"/><rect class="cls-2" x="99.27" y="66.88" width="18.15" height="19.54"/><path class="cls-3" d="M-139.73-63.35a50.62,50.62,0,0,1,10,11.28,1.77,1.77,0,0,0,.85.84c.74.24,1.36-.6,1.74-1.31,3.48-6.61,6.9-13.31,11.33-19.22s10-11.07,16.61-13.68" transform="translate(159.27 185.89)"/><path class="cls-4" d="M-143.27-59.81a50,50,0,0,1,4.66,4.43c.69.74,1.35,1.5,2,2.28l.54.68c0-.06-.45-.61-.12-.15s.78,1,1.15,1.58a22.46,22.46,0,0,0,2.13,3A6,6,0,0,0-127-46.44c3-.93,4.18-3.68,5.51-6.21,2.13-4,4.29-8.07,6.74-11.92.57-.89,1.15-1.78,1.76-2.65l.91-1.29c.17-.22,1.17-1.53.51-.69a55.54,55.54,0,0,1,4.05-4.62c.81-.82,1.65-1.6,2.53-2.35.4-.35.82-.69,1.24-1s-.66.46,0,0c.27-.18.53-.39.81-.58.87-.61,1.77-1.17,2.69-1.69.52-.29,1-.57,1.58-.83l.54-.25c1.19-.58-1,.38.26-.12,2.42-1,4.39-3.38,3.49-6.15-.75-2.34-3.55-4.54-6.15-3.49-7.63,3.07-13.71,8.35-18.71,14.82a89.27,89.27,0,0,0-6.91,10.5c-1,1.79-2,3.6-3,5.42l-1.5,2.83-.64,1.22c-.12.24-.25.48-.39.71a3.48,3.48,0,0,1,2.76-1.47l2.53.69.52.44c.44.58.54.68.29.32s-.4-.61-.6-.9q-.56-.81-1.14-1.59c-1-1.33-2-2.64-3.09-3.89a49.82,49.82,0,0,0-5.81-5.72c-2-1.68-5.13-2.11-7.07,0-1.7,1.85-2.14,5.27,0,7.07Z" transform="translate(159.27 185.89)"/></svg>