<svg id="Calque_1" data-name="Calque 1" xmlns="http://www.w3.org/2000/svg" viewBox="0 0 148.91 151.59"><defs><style>.cls-1{fill:#e62257;stroke:#531110;stroke-miterlimit:10;stroke-width:4px;}</style></defs><path class="cls-1" d="M66.92-153.67c1-3.38,3.69-5.79,6.42-8a24.88,24.88,0,0,0-23.2-15.58,24.67,24.67,0,0,0-24.9,24.44,24.67,24.67,0,0,0,24.9,24.43A25,25,0,0,0,71.71-140.6C68.85-144.52,65.45-148.74,66.92-153.67Z" transform="translate(-21.88 184.22)"/><path class="cls-1" d="M125-169.07l.75,42.08L96.06-144.3a5,5,0,0,1,.07-8.64Z" transform="translate(-21.88 184.22)"/><path class="cls-1" d="M160.53-178l-27.21,15.13a1.71,1.71,0,0,1-2.34-.69l-.52-1a1.76,1.76,0,0,1,.67-2.37L158.34-182a1.72,1.72,0,0,1,2.34.69l.52,1A1.76,1.76,0,0,1,160.53-178Z" transform="translate(-21.88 184.22)"/><rect class="cls-1" x="108.76" y="32.6" width="38.15" height="4.58" rx="1.73"/><path class="cls-1" d="M159.12-119.27,131-129.77a1.74,1.74,0,0,1-1-2.24l.38-1a1.72,1.72,0,0,1,2.21-1l28.14,10.5a1.74,1.74,0,0,1,1,2.24l-.38,1A1.72,1.72,0,0,1,159.12-119.27Z" transform="translate(-21.88 184.22)"/><path class="cls-1" d="M28.42,59.52h0a26.1,26.1,0,0,1,26.1,26.1v64a0,0,0,0,1,0,0H2a0,0,0,0,1,0,0V85.94A26.42,26.42,0,0,1,28.42,59.52Z"/><path class="cls-1" d="M105.41-123,62-95.59a7.24,7.24,0,0,1-9.9-2.11h0a7,7,0,0,1,2.15-9.72l43.46-27.42a7.24,7.24,0,0,1,9.9,2.12h0A7,7,0,0,1,105.41-123Z" transform="translate(-21.88 184.22)"/></svg>