<svg id="Calque_4" data-name="Calque 4" xmlns="http://www.w3.org/2000/svg" viewBox="0 0 176.89 123.83"><defs><style>.cls-1{fill:#e62257;stroke:#531110;stroke-miterlimit:10;stroke-width:4px;}</style></defs><path class="cls-1" d="M460.72-138.6a34.18,34.18,0,0,0,6.13,47.11,32.23,32.23,0,0,0,45.93-6.29,34.18,34.18,0,0,0-6.13-47.11,32.08,32.08,0,0,0-19.9-6.91A32.42,32.42,0,0,0,460.72-138.6Z" transform="translate(-444.18 163.36)"/><polyline class="cls-1" points="42.57 11.56 42.57 45.17 67.9 23.85"/><polygon class="cls-1" points="3.67 121.83 24.69 89.19 48.37 106.02 105.94 30.33 122.61 64.25 174.89 5.27 174.89 121.83 3.67 121.83"/></svg>